<svg width="21" height="21" viewBox="0 0 21 21" fill="none" xmlns="http://www.w3.org/2000/svg">
<path d="M14.5001 2.33331V3.99998M10.3334 2.33331V3.99998M6.16675 2.33331V3.99998" stroke="#4B5563" stroke-width="1.5" stroke-linecap="round" stroke-linejoin="round"/>
<path d="M3.25 8.99999C3.25 6.25013 3.25 4.8752 4.10427 4.02093C4.95854 3.16666 6.33347 3.16666 9.08333 3.16666H11.5833C14.3332 3.16666 15.7081 3.16666 16.5624 4.02093C17.4167 4.8752 17.4167 6.25013 17.4167 8.99999V13.1667C17.4167 15.9165 17.4167 17.2914 16.5624 18.1457C15.7081 19 14.3332 19 11.5833 19H9.08333C6.33347 19 4.95854 19 4.10427 18.1457C3.25 17.2914 3.25 15.9165 3.25 13.1667V8.99999Z" stroke="#4B5563" stroke-width="1.5" stroke-linecap="round" stroke-linejoin="round"/>
<path d="M7 13.1667H10.3333M7 9H13.6667" stroke="#4B5563" stroke-width="1.5" stroke-linecap="round"/>
</svg>
