<svg width="16" height="16" viewBox="0 0 16 16" fill="none" xmlns="http://www.w3.org/2000/svg">
<path d="M4.03469 0.833328C4.63366 0.833309 5.13314 0.833294 5.52965 0.886604C5.94818 0.942874 6.32605 1.06665 6.6297 1.3703C6.93334 1.67395 7.05712 2.05181 7.11339 2.47034C7.1667 2.86686 7.16669 3.36633 7.16667 3.96531V3.96533V5.36799V5.36802C7.16669 5.967 7.1667 6.46647 7.11339 6.86298C7.05712 7.28151 6.93334 7.65938 6.6297 7.96303C6.32605 8.26667 5.94818 8.39045 5.52965 8.44672C5.13314 8.50003 4.63367 8.50002 4.03469 8.5H4.03466H3.96534H3.96531C3.36633 8.50002 2.86686 8.50003 2.47035 8.44672C2.05182 8.39045 1.67395 8.26667 1.3703 7.96303C1.06666 7.65938 0.942878 7.28151 0.886608 6.86298C0.833298 6.46647 0.833313 5.96699 0.833332 5.36802V5.368L0.833332 3.96533V3.96531C0.833313 3.36633 0.833298 2.86686 0.886608 2.47034C0.942878 2.05181 1.06666 1.67395 1.3703 1.3703C1.67395 1.06665 2.05182 0.942874 2.47035 0.886604C2.86686 0.833294 3.36634 0.833309 3.96531 0.833328H3.96533H4.03467H4.03469Z" fill="#1F2A37"/>
<path d="M4.03469 0.833328C4.63366 0.833309 5.13314 0.833294 5.52965 0.886604C5.94818 0.942874 6.32605 1.06665 6.6297 1.3703C6.93334 1.67395 7.05712 2.05181 7.11339 2.47034C7.1667 2.86686 7.16669 3.36633 7.16667 3.96531V3.96533V5.36799V5.36802C7.16669 5.967 7.1667 6.46647 7.11339 6.86298C7.05712 7.28151 6.93334 7.65938 6.6297 7.96303C6.32605 8.26667 5.94818 8.39045 5.52965 8.44672C5.13314 8.50003 4.63367 8.50002 4.03469 8.5H4.03466H3.96534H3.96531C3.36633 8.50002 2.86686 8.50003 2.47035 8.44672C2.05182 8.39045 1.67395 8.26667 1.3703 7.96303C1.06666 7.65938 0.942878 7.28151 0.886608 6.86298C0.833298 6.46647 0.833313 5.96699 0.833332 5.36802V5.368L0.833332 3.96533V3.96531C0.833313 3.36633 0.833298 2.86686 0.886608 2.47034C0.942878 2.05181 1.06666 1.67395 1.3703 1.3703C1.67395 1.06665 2.05182 0.942874 2.47035 0.886604C2.86686 0.833294 3.36634 0.833309 3.96531 0.833328H3.96533H4.03467H4.03469Z" fill="black" fill-opacity="0.2"/>
<path d="M4.68351 10.1667C4.97981 10.1667 5.22717 10.1667 5.43024 10.1805C5.64164 10.1949 5.84133 10.226 6.03492 10.3062C6.48414 10.4923 6.84104 10.8492 7.02711 11.2984C7.1073 11.492 7.1384 11.6917 7.15282 11.9031C7.16668 12.1062 7.16667 12.3535 7.16667 12.6498V12.6835C7.16667 12.9798 7.16668 13.2272 7.15282 13.4302C7.1384 13.6416 7.1073 13.8413 7.02711 14.0349C6.84104 14.4841 6.48414 14.841 6.03492 15.0271C5.84133 15.1073 5.64164 15.1384 5.43024 15.1528C5.22717 15.1667 4.97981 15.1667 4.68351 15.1667H3.3165C3.02019 15.1667 2.77283 15.1667 2.56976 15.1528C2.35836 15.1384 2.15867 15.1073 1.96508 15.0271C1.51586 14.841 1.15896 14.4841 0.972888 14.0349C0.8927 13.8413 0.861605 13.6416 0.847181 13.4302C0.833325 13.2272 0.833329 12.9798 0.833334 12.6835V12.6835L0.833334 12.6498V12.6498C0.833329 12.3535 0.833325 12.1062 0.847181 11.9031C0.861605 11.6917 0.8927 11.492 0.972888 11.2984C1.15896 10.8492 1.51586 10.4923 1.96508 10.3062C2.15867 10.226 2.35836 10.1949 2.56976 10.1805C2.77283 10.1667 3.02019 10.1667 3.31649 10.1667H3.3165L4.6835 10.1667H4.68351Z" fill="#1F2A37"/>
<path d="M4.68351 10.1667C4.97981 10.1667 5.22717 10.1667 5.43024 10.1805C5.64164 10.1949 5.84133 10.226 6.03492 10.3062C6.48414 10.4923 6.84104 10.8492 7.02711 11.2984C7.1073 11.492 7.1384 11.6917 7.15282 11.9031C7.16668 12.1062 7.16667 12.3535 7.16667 12.6498V12.6835C7.16667 12.9798 7.16668 13.2272 7.15282 13.4302C7.1384 13.6416 7.1073 13.8413 7.02711 14.0349C6.84104 14.4841 6.48414 14.841 6.03492 15.0271C5.84133 15.1073 5.64164 15.1384 5.43024 15.1528C5.22717 15.1667 4.97981 15.1667 4.68351 15.1667H3.3165C3.02019 15.1667 2.77283 15.1667 2.56976 15.1528C2.35836 15.1384 2.15867 15.1073 1.96508 15.0271C1.51586 14.841 1.15896 14.4841 0.972888 14.0349C0.8927 13.8413 0.861605 13.6416 0.847181 13.4302C0.833325 13.2272 0.833329 12.9798 0.833334 12.6835V12.6835L0.833334 12.6498V12.6498C0.833329 12.3535 0.833325 12.1062 0.847181 11.9031C0.861605 11.6917 0.8927 11.492 0.972888 11.2984C1.15896 10.8492 1.51586 10.4923 1.96508 10.3062C2.15867 10.226 2.35836 10.1949 2.56976 10.1805C2.77283 10.1667 3.02019 10.1667 3.31649 10.1667H3.3165L4.6835 10.1667H4.68351Z" fill="black" fill-opacity="0.2"/>
<path d="M12.0347 7.5C12.6337 7.49998 13.1331 7.49997 13.5297 7.55328C13.9482 7.60955 14.326 7.73333 14.6297 8.03697C14.9333 8.34062 15.0571 8.71849 15.1134 9.13702C15.1667 9.53353 15.1667 10.033 15.1667 10.632V10.632V12.0347V12.0347C15.1667 12.6337 15.1667 13.1331 15.1134 13.5297C15.0571 13.9482 14.9333 14.326 14.6297 14.6297C14.326 14.9333 13.9482 15.0571 13.5297 15.1134C13.1331 15.1667 12.6337 15.1667 12.0347 15.1667H12.0347H11.9653H11.9653C11.3663 15.1667 10.8669 15.1667 10.4703 15.1134C10.0518 15.0571 9.67395 14.9333 9.3703 14.6297C9.06666 14.326 8.94288 13.9482 8.88661 13.5297C8.8333 13.1331 8.83331 12.6337 8.83333 12.0347V12.0347L8.83333 10.632V10.632C8.83331 10.033 8.8333 9.53353 8.88661 9.13702C8.94288 8.71849 9.06666 8.34062 9.3703 8.03697C9.67395 7.73333 10.0518 7.60955 10.4703 7.55328C10.8669 7.49997 11.3663 7.49998 11.9653 7.5H11.9653H12.0347H12.0347Z" fill="#1F2A37"/>
<path d="M12.0347 7.5C12.6337 7.49998 13.1331 7.49997 13.5297 7.55328C13.9482 7.60955 14.326 7.73333 14.6297 8.03697C14.9333 8.34062 15.0571 8.71849 15.1134 9.13702C15.1667 9.53353 15.1667 10.033 15.1667 10.632V10.632V12.0347V12.0347C15.1667 12.6337 15.1667 13.1331 15.1134 13.5297C15.0571 13.9482 14.9333 14.326 14.6297 14.6297C14.326 14.9333 13.9482 15.0571 13.5297 15.1134C13.1331 15.1667 12.6337 15.1667 12.0347 15.1667H12.0347H11.9653H11.9653C11.3663 15.1667 10.8669 15.1667 10.4703 15.1134C10.0518 15.0571 9.67395 14.9333 9.3703 14.6297C9.06666 14.326 8.94288 13.9482 8.88661 13.5297C8.8333 13.1331 8.83331 12.6337 8.83333 12.0347V12.0347L8.83333 10.632V10.632C8.83331 10.033 8.8333 9.53353 8.88661 9.13702C8.94288 8.71849 9.06666 8.34062 9.3703 8.03697C9.67395 7.73333 10.0518 7.60955 10.4703 7.55328C10.8669 7.49997 11.3663 7.49998 11.9653 7.5H11.9653H12.0347H12.0347Z" fill="black" fill-opacity="0.2"/>
<path d="M12.6835 0.833328C12.9798 0.833324 13.2272 0.83332 13.4302 0.847175C13.6416 0.861599 13.8413 0.892694 14.0349 0.972883C14.4841 1.15896 14.841 1.51586 15.0271 1.96508C15.1073 2.15867 15.1384 2.35835 15.1528 2.56975C15.1667 2.77283 15.1667 3.02018 15.1667 3.31649V3.35017C15.1667 3.64647 15.1667 3.89383 15.1528 4.0969C15.1384 4.3083 15.1073 4.50799 15.0271 4.70158C14.841 5.1508 14.4841 5.5077 14.0349 5.69377C13.8413 5.77396 13.6416 5.80506 13.4302 5.81948C13.2272 5.83334 12.9798 5.83333 12.6835 5.83333H11.3165C11.0202 5.83333 10.7728 5.83334 10.5698 5.81948C10.3584 5.80506 10.1587 5.77396 9.96508 5.69377C9.51586 5.5077 9.15896 5.1508 8.97289 4.70158C8.8927 4.50799 8.8616 4.3083 8.84718 4.0969C8.83332 3.89383 8.83333 3.64648 8.83333 3.35017V3.35016V3.31649V3.31649C8.83333 3.02018 8.83332 2.77283 8.84718 2.56975C8.8616 2.35835 8.8927 2.15867 8.97289 1.96508C9.15896 1.51586 9.51586 1.15896 9.96508 0.972883C10.1587 0.892694 10.3584 0.861599 10.5698 0.847175C10.7728 0.83332 11.0202 0.833324 11.3165 0.833328H11.3165L12.6835 0.833328H12.6835Z" fill="#1F2A37"/>
<path d="M12.6835 0.833328C12.9798 0.833324 13.2272 0.83332 13.4302 0.847175C13.6416 0.861599 13.8413 0.892694 14.0349 0.972883C14.4841 1.15896 14.841 1.51586 15.0271 1.96508C15.1073 2.15867 15.1384 2.35835 15.1528 2.56975C15.1667 2.77283 15.1667 3.02018 15.1667 3.31649V3.35017C15.1667 3.64647 15.1667 3.89383 15.1528 4.0969C15.1384 4.3083 15.1073 4.50799 15.0271 4.70158C14.841 5.1508 14.4841 5.5077 14.0349 5.69377C13.8413 5.77396 13.6416 5.80506 13.4302 5.81948C13.2272 5.83334 12.9798 5.83333 12.6835 5.83333H11.3165C11.0202 5.83333 10.7728 5.83334 10.5698 5.81948C10.3584 5.80506 10.1587 5.77396 9.96508 5.69377C9.51586 5.5077 9.15896 5.1508 8.97289 4.70158C8.8927 4.50799 8.8616 4.3083 8.84718 4.0969C8.83332 3.89383 8.83333 3.64648 8.83333 3.35017V3.35016V3.31649V3.31649C8.83333 3.02018 8.83332 2.77283 8.84718 2.56975C8.8616 2.35835 8.8927 2.15867 8.97289 1.96508C9.15896 1.51586 9.51586 1.15896 9.96508 0.972883C10.1587 0.892694 10.3584 0.861599 10.5698 0.847175C10.7728 0.83332 11.0202 0.833324 11.3165 0.833328H11.3165L12.6835 0.833328H12.6835Z" fill="black" fill-opacity="0.2"/>
</svg>
