<svg width="16" height="15" viewBox="0 0 16 15" fill="none" xmlns="http://www.w3.org/2000/svg">
<path d="M9.64596 9.63438C9.17006 10.1102 8.32616 10.1524 7.06963 10.1556C6.79581 10.1563 6.6589 10.1567 6.53685 10.2074C6.4148 10.2582 6.31875 10.3542 6.12665 10.5464L3.0358 13.6376C2.53196 14.1415 1.71508 14.1415 1.21124 13.6376C0.707399 13.1338 0.707399 12.3169 1.21124 11.8131L4.30262 8.72153C4.4947 8.52944 4.59074 8.43339 4.64147 8.31135C4.6922 8.18932 4.69255 8.05243 4.69325 7.77865C4.69645 6.52288 4.73872 5.67861 5.21458 5.20282C5.75715 4.66035 5.99677 4.68231 8.40024 4.68231C8.6325 4.68132 8.7494 4.96221 8.58519 5.12644L7.34768 6.36404C7.03358 6.67818 7.03271 7.18746 7.34686 7.50156C7.66101 7.81565 8.17033 7.81569 8.48452 7.50163L9.72235 6.26434C9.88661 6.10014 10.1676 6.21702 10.1666 6.44925C10.1666 8.85232 10.1885 9.09191 9.64596 9.63438Z" fill="#F3F4F6"/>
<path fill-rule="evenodd" clip-rule="evenodd" d="M10.3123 1.74209C10.3286 1.75138 10.346 1.76134 10.3648 1.77211L11.4885 2.41517C11.509 2.4269 11.5279 2.43771 11.5454 2.4478C11.5329 2.49789 11.5183 2.55466 11.5011 2.62138C11.0805 4.25433 12.0968 5.94148 13.7012 6.3775C13.7634 6.39443 13.8167 6.4089 13.8636 6.42203C13.8636 6.44159 13.8636 6.46258 13.8636 6.48528V7.75511C13.8636 7.77781 13.8636 7.79879 13.8636 7.81836C13.8167 7.83149 13.7634 7.84597 13.7011 7.86291C12.0968 8.29903 11.0814 9.98634 11.5022 11.619C11.5193 11.6857 11.534 11.7425 11.5464 11.7925C11.5289 11.8026 11.51 11.8134 11.4895 11.8251L10.3659 12.4682C10.3471 12.479 10.3296 12.4889 10.3134 12.4982C10.2798 12.4649 10.242 12.4269 10.198 12.3827C8.81003 10.9866 6.37392 11.1963 5.30801 13.0263C5.12584 13.3391 5.2297 13.7415 5.54 13.9251C5.8503 14.1088 6.24952 14.0041 6.4317 13.6913C7.04947 12.6306 8.46945 12.4995 9.27758 13.3124L9.29333 13.3282C9.40225 13.4378 9.51151 13.5477 9.60816 13.6297C9.69764 13.7056 9.87742 13.8495 10.1279 13.8835C10.3568 13.9146 10.5459 13.8467 10.663 13.7949C10.7688 13.7481 10.886 13.6809 10.9904 13.6212L12.1329 12.9673C12.1392 12.9637 12.1455 12.9601 12.1519 12.9564C12.2585 12.8955 12.3773 12.8275 12.4724 12.7593C12.5767 12.6845 12.734 12.5543 12.825 12.3373C12.9251 12.0988 12.8906 11.8644 12.8709 11.7488C12.849 11.6209 12.8091 11.4665 12.769 11.3107L12.7633 11.2888C12.5282 10.3766 13.1034 9.38574 14.0404 9.13101L14.0621 9.12513C14.2131 9.08409 14.364 9.04311 14.4839 8.99927C14.5939 8.95903 14.8101 8.87334 14.9652 8.6693C15.1068 8.48298 15.1417 8.28187 15.1548 8.15331C15.1668 8.03665 15.1667 7.89958 15.1667 7.77711C15.1667 7.76972 15.1667 7.76238 15.1667 7.75511V6.48528C15.1667 6.47801 15.1667 6.47067 15.1667 6.46328C15.1667 6.34081 15.1668 6.20372 15.1548 6.08706C15.1417 5.9585 15.1068 5.75738 14.9652 5.57106C14.8101 5.36702 14.5939 5.28134 14.4839 5.2411C14.364 5.19726 14.2131 5.15629 14.062 5.11525C14.0548 5.1133 14.0476 5.11134 14.0404 5.10938C13.1029 4.85459 12.5274 3.86352 12.7623 2.95147C12.7642 2.94417 12.7661 2.93688 12.768 2.9296C12.8082 2.77374 12.848 2.61932 12.8698 2.49142C12.8896 2.37588 12.924 2.14145 12.824 1.903C12.7329 1.68602 12.5756 1.55581 12.4713 1.481C12.3763 1.41279 12.2574 1.34484 12.1509 1.2839C12.1445 1.28025 12.1381 1.27662 12.1318 1.27302L11.0082 0.629949C11.0019 0.626382 10.9957 0.622781 10.9893 0.619153C10.885 0.55938 10.7677 0.492239 10.662 0.445427C10.5449 0.39363 10.3558 0.325709 10.1269 0.356793C9.87647 0.3908 9.69668 0.534719 9.60721 0.610577C9.51056 0.692515 9.40128 0.802434 9.29235 0.912008C9.28709 0.9173 9.28183 0.922591 9.27658 0.927878C8.58015 1.62819 7.41879 1.6282 6.72239 0.927933L6.70662 0.912068C6.59768 0.802492 6.48841 0.692573 6.39176 0.610635C6.30228 0.534779 6.12249 0.390861 5.87206 0.356856C5.64315 0.325773 5.45405 0.393695 5.337 0.445491C5.23122 0.492303 5.114 0.559444 5.00965 0.619217C5.00331 0.622845 4.99703 0.626445 4.9908 0.630012L3.86713 1.27308C3.86084 1.27668 3.85449 1.28031 3.8481 1.28397C3.74152 1.34491 3.62269 1.41286 3.5276 1.48108C3.42331 1.55589 3.26604 1.68612 3.17498 1.90313C3.07493 2.14159 3.10937 2.37602 3.12915 2.49158C3.15103 2.61947 3.19085 2.77388 3.23104 2.92972L3.23668 2.95159C3.47179 3.86382 2.89662 4.85465 1.95957 5.10938L1.93794 5.11525C1.78687 5.1563 1.636 5.19728 1.5161 5.24112C1.40606 5.28136 1.18988 5.36705 1.03481 5.57109C0.893214 5.7574 0.85831 5.95852 0.845169 6.08708C0.833244 6.20373 0.833294 6.34081 0.833339 6.46327C0.833342 6.47067 0.833344 6.478 0.833344 6.48528V7.75511C0.833344 7.76238 0.833342 7.76972 0.833339 7.77712C0.833294 7.89959 0.833244 8.03668 0.845169 8.15334C0.85831 8.2819 0.893215 8.48303 1.03483 8.66935C1.18987 8.87336 1.40599 8.95904 1.51606 8.99928C1.63592 9.04311 1.78673 9.08408 1.93772 9.12509L1.95937 9.13097L1.96809 9.13336C2.31502 9.22958 2.67365 9.0241 2.7691 8.67441C2.86456 8.32471 2.6607 7.96323 2.31377 7.86701L2.2986 7.86285C2.23642 7.84595 2.18326 7.83149 2.1364 7.81838C2.13637 7.79881 2.13637 7.77781 2.13637 7.75511V6.48528C2.13637 6.46258 2.13637 6.44159 2.13641 6.42203C2.18334 6.4089 2.23658 6.39441 2.29886 6.37748C3.90321 5.94136 4.91864 4.25405 4.49785 2.62135C4.48066 2.55466 4.46605 2.49792 4.45356 2.44786C4.47112 2.43777 4.49 2.42696 4.51049 2.41524L5.63415 1.77217C5.65296 1.76141 5.67038 1.75144 5.68665 1.74216C5.72029 1.7755 5.75805 1.81346 5.80212 1.85777C7.00716 3.0695 8.99185 3.06944 10.1969 1.8577C10.2409 1.81339 10.2787 1.77543 10.3123 1.74209Z" fill="#F3F4F6"/>
</svg>
