<svg width="16" height="16" viewBox="0 0 16 16" fill="none" xmlns="http://www.w3.org/2000/svg">
<path d="M8.00098 10.5C8.31787 10.5 8.53058 10.5005 8.69531 10.5117C8.85562 10.5226 8.93397 10.5422 8.98535 10.5635C9.18968 10.6481 9.35194 10.8103 9.43652 11.0146C9.45778 11.066 9.47736 11.1444 9.48828 11.3047C9.4995 11.4694 9.5 11.6821 9.5 11.999V15.165C9.2476 15.1662 8.98224 15.167 8.7041 15.167H7.2959C7.01773 15.167 6.75243 15.1662 6.5 15.165L6.50195 11.999C6.50207 11.6823 6.50241 11.4694 6.51367 11.3047C6.52465 11.1444 6.54416 11.066 6.56543 11.0146C6.65005 10.8103 6.81222 10.648 7.0166 10.5635C7.06798 10.5422 7.14639 10.5226 7.30664 10.5117C7.47133 10.5005 7.68421 10.5 8.00098 10.5ZM8 0.833008C8.58247 0.833008 9.09889 1.03332 9.64941 1.36621C10.1825 1.68859 10.7919 2.16381 11.5566 2.76074L12.3457 3.37695C13.2629 4.09241 13.8562 4.55514 14.1787 5.2168C14.5009 5.8781 14.5004 6.63121 14.5 7.79687V9.35156C14.5 10.5813 14.5005 11.5554 14.3984 12.3174C14.2934 13.1011 14.0716 13.735 13.5732 14.2354C13.0744 14.736 12.4411 14.959 11.6592 15.0645C11.317 15.1106 10.9318 15.1335 10.5 15.1475V11.9824C10.5 11.6865 10.5002 11.4392 10.4863 11.2363C10.4719 11.0253 10.4403 10.8261 10.3604 10.6328C10.1743 10.183 9.817 9.82574 9.36719 9.63965C9.17388 9.5597 8.97472 9.52807 8.76367 9.51367C8.56082 9.49985 8.31354 9.5 8.01758 9.5H7.98437C7.68851 9.5 7.44107 9.49985 7.23828 9.51367C7.02723 9.52805 6.82808 9.55972 6.63477 9.63965C6.18514 9.82561 5.82781 10.1823 5.6416 10.6318C5.56156 10.8252 5.53009 11.0252 5.51562 11.2363C5.50176 11.439 5.50206 11.6858 5.50195 11.9814L5.5 15.1475C5.06817 15.1335 4.68304 15.1106 4.34082 15.0645C3.55888 14.959 2.92559 14.736 2.42676 14.2354C1.92841 13.7351 1.70755 13.101 1.60254 12.3174C1.50046 11.5554 1.49999 10.5813 1.5 9.35156L1.5 7.79688C1.49962 6.63123 1.49916 5.87809 1.82129 5.2168C2.14374 4.55515 2.73711 4.09238 3.6543 3.37695L4.44336 2.76074C5.20809 2.16382 5.81752 1.6886 6.35059 1.36621C6.90109 1.03333 7.41755 0.83302 8 0.833008Z" fill="#F3F4F6"/>
<path d="M8.00098 10.5L8.00098 9.75H8.00098L8.00098 10.5ZM8.69531 10.5117L8.74631 9.76345L8.74627 9.76345L8.69531 10.5117ZM8.98535 10.5635L9.27221 9.8705L9.27206 9.87044L8.98535 10.5635ZM9.43652 11.0146L10.1296 10.7279L10.1295 10.7278L9.43652 11.0146ZM9.48828 11.3047L10.2365 11.2537L10.2365 11.2537L9.48828 11.3047ZM9.5 11.999H10.25H9.5ZM9.5 15.165L9.50356 15.915C9.91638 15.9131 10.25 15.5779 10.25 15.165H9.5ZM8.7041 15.167L8.70411 14.417H8.7041V15.167ZM7.2959 15.167V14.417H7.29589L7.2959 15.167ZM6.5 15.165L5.75 15.1646C5.74974 15.5776 6.08344 15.9131 6.49644 15.915L6.5 15.165ZM6.50195 11.999L7.25195 11.9995V11.9993L6.50195 11.999ZM6.51367 11.3047L5.76543 11.2534L5.76542 11.2535L6.51367 11.3047ZM6.56543 11.0146L5.87248 10.7277L5.87247 10.7277L6.56543 11.0146ZM7.0166 10.5635L6.72996 9.87041L6.72991 9.87043L7.0166 10.5635ZM7.30664 10.5117L7.25575 9.76345L7.25565 9.76345L7.30664 10.5117ZM8 0.833008V0.0830078H7.99998L8 0.833008ZM9.64941 1.36621L10.0375 0.724442L10.0375 0.72442L9.64941 1.36621ZM11.5566 2.76074L12.0183 2.16964L12.0181 2.16953L11.5566 2.76074ZM12.3457 3.37695L11.8841 3.96806L11.8844 3.96832L12.3457 3.37695ZM14.1787 5.2168L14.853 4.88834L14.8529 4.88823L14.1787 5.2168ZM14.5 7.79687L13.75 7.79663V7.79687L14.5 7.79687ZM14.5 9.35156H13.75V9.35157L14.5 9.35156ZM14.3984 12.3174L15.1418 12.417L15.1418 12.417L14.3984 12.3174ZM13.5732 14.2354L14.1045 14.7647L14.1046 14.7647L13.5732 14.2354ZM11.6592 15.0645L11.7594 15.8077L11.7595 15.8077L11.6592 15.0645ZM10.5 15.1475H9.75C9.75 15.3506 9.83237 15.545 9.97829 15.6863C10.1242 15.8276 10.3212 15.9036 10.5242 15.8971L10.5 15.1475ZM10.5 11.9824L9.75 11.9824V11.9824H10.5ZM10.4863 11.2363L11.2346 11.1853L11.2346 11.1853L10.4863 11.2363ZM10.3604 10.6328L11.0534 10.3462L11.0534 10.3461L10.3604 10.6328ZM9.36719 9.63965L9.6539 8.94661L9.65382 8.94658L9.36719 9.63965ZM8.76367 9.51367L8.81471 8.76541L8.81467 8.76541L8.76367 9.51367ZM8.01758 9.5L8.01758 10.25H8.01759L8.01758 9.5ZM7.98437 9.5L7.98436 10.25H7.98437L7.98437 9.5ZM7.23828 9.51367L7.1873 8.76541H7.18729L7.23828 9.51367ZM6.63477 9.63965L6.34821 8.94655L6.34812 8.94659L6.63477 9.63965ZM5.6416 10.6318L4.9487 10.3448L4.94865 10.3449L5.6416 10.6318ZM5.51562 11.2363L4.76738 11.1851L4.76737 11.1852L5.51562 11.2363ZM5.50195 11.9814L6.25195 11.9819V11.9817L5.50195 11.9814ZM5.5 15.1475L5.47582 15.8971C5.67874 15.9036 5.87564 15.8276 6.02154 15.6864C6.16744 15.5453 6.24987 15.3509 6.25 15.1479L5.5 15.1475ZM4.34082 15.0645L4.24054 15.8077L4.24058 15.8077L4.34082 15.0645ZM2.42676 14.2354L1.8954 14.7647L1.89549 14.7647L2.42676 14.2354ZM1.60254 12.3174L0.85918 12.417L0.859183 12.417L1.60254 12.3174ZM1.5 9.35156L2.25 9.35157V9.35156H1.5ZM1.5 7.79688H2.25L2.25 7.79663L1.5 7.79688ZM1.82129 5.2168L1.14709 4.88823L1.14703 4.88835L1.82129 5.2168ZM3.6543 3.37695L4.11558 3.96832L4.11592 3.96806L3.6543 3.37695ZM4.44336 2.76074L3.98188 2.16953L3.98174 2.16964L4.44336 2.76074ZM6.35059 1.36621L5.96251 0.72442L5.96246 0.724447L6.35059 1.36621ZM8.00098 10.5V11.25C8.32761 11.25 8.51089 11.2509 8.64435 11.26L8.69531 10.5117L8.74627 9.76345C8.55027 9.7501 8.30813 9.75 8.00098 9.75L8.00098 10.5ZM8.69531 10.5117L8.64432 11.26C8.70403 11.2641 8.73148 11.2687 8.7386 11.27C8.74144 11.2706 8.73816 11.2701 8.73032 11.2678C8.72203 11.2654 8.71113 11.2617 8.69864 11.2565L8.98535 10.5635L9.27206 9.87044C9.11354 9.80486 8.94369 9.77691 8.74631 9.76345L8.69531 10.5117ZM8.98535 10.5635L8.69849 11.2564C8.71892 11.2649 8.73509 11.2811 8.74355 11.3015L9.43652 11.0146L10.1295 10.7278C9.96879 10.3396 9.66043 10.0312 9.27221 9.8705L8.98535 10.5635ZM9.43652 11.0146L8.74349 11.3014C8.73832 11.2889 8.73464 11.278 8.73221 11.2697C8.72992 11.2618 8.7294 11.2586 8.72995 11.2614C8.73133 11.2685 8.73595 11.296 8.74002 11.3557L9.48828 11.3047L10.2365 11.2537C10.2231 11.0563 10.1951 10.8865 10.1296 10.7279L9.43652 11.0146ZM9.48828 11.3047L8.74001 11.3556C8.7491 11.4891 8.75 11.6724 8.75 11.999H9.5H10.25C10.25 11.6919 10.2499 11.4497 10.2365 11.2537L9.48828 11.3047ZM9.5 11.999H8.75V15.165H9.5H10.25V11.999H9.5ZM9.5 15.165L9.49644 14.415C9.24503 14.4162 8.98087 14.417 8.70411 14.417L8.7041 15.167L8.70409 15.917C8.9836 15.917 9.25016 15.9162 9.50356 15.915L9.5 15.165ZM8.7041 15.167V14.417H7.2959V15.167V15.917H8.7041V15.167ZM7.2959 15.167L7.29589 14.417C7.01909 14.417 6.755 14.4162 6.50356 14.415L6.5 15.165L6.49644 15.915C6.74987 15.9162 7.01636 15.917 7.29591 15.917L7.2959 15.167ZM6.5 15.165L7.25 15.1655L7.25195 11.9995L6.50195 11.999L5.75195 11.9986L5.75 15.1646L6.5 15.165ZM6.50195 11.999L7.25195 11.9993C7.25207 11.672 7.25282 11.4891 7.26193 11.3558L6.51367 11.3047L5.76542 11.2535C5.75201 11.4496 5.75207 11.6926 5.75195 11.9987L6.50195 11.999ZM6.51367 11.3047L7.26192 11.356C7.26602 11.2961 7.27064 11.2685 7.27204 11.2613C7.27261 11.2584 7.2721 11.2616 7.2698 11.2695C7.26737 11.2778 7.26365 11.2888 7.25839 11.3015L6.56543 11.0146L5.87247 10.7277C5.80671 10.8866 5.7789 11.0568 5.76543 11.2534L6.51367 11.3047ZM6.56543 11.0146L7.25837 11.3016C7.26694 11.2809 7.2831 11.2649 7.30329 11.2565L7.0166 10.5635L6.72991 9.87043C6.34133 10.0312 6.03316 10.3397 5.87248 10.7277L6.56543 11.0146ZM7.0166 10.5635L7.30324 11.2565C7.29075 11.2617 7.27985 11.2654 7.27159 11.2678C7.26378 11.2701 7.26052 11.2706 7.26337 11.27C7.27052 11.2687 7.29798 11.264 7.35763 11.26L7.30664 10.5117L7.25565 9.76345C7.05828 9.7769 6.88841 9.80488 6.72996 9.87041L7.0166 10.5635ZM7.30664 10.5117L7.35753 11.26C7.49101 11.2509 7.67454 11.25 8.00098 11.25L8.00098 10.5L8.00098 9.75C7.69388 9.75 7.45165 9.75012 7.25575 9.76345L7.30664 10.5117ZM8 0.833008V1.58301C8.39453 1.58301 8.77463 1.7137 9.26134 2.008L9.64941 1.36621L10.0375 0.72442C9.42315 0.352939 8.7704 0.0830078 8 0.0830078V0.833008ZM9.64941 1.36621L9.2613 2.00798C9.74754 2.30204 10.3173 2.74478 11.0952 3.35196L11.5566 2.76074L12.0181 2.16953C11.2665 1.58284 10.6174 1.07514 10.0375 0.724442L9.64941 1.36621ZM11.5566 2.76074L11.095 3.35185L11.8841 3.96806L12.3457 3.37695L12.8073 2.78585L12.0183 2.16964L11.5566 2.76074ZM12.3457 3.37695L11.8844 3.96832C12.8468 4.71902 13.2741 5.0726 13.5045 5.54537L14.1787 5.2168L14.8529 4.88823C14.4384 4.03767 13.679 3.4658 12.807 2.78558L12.3457 3.37695ZM14.1787 5.2168L13.5045 5.54525C13.7348 6.01808 13.7504 6.57344 13.75 7.79663L14.5 7.79687L15.25 7.79712C15.2504 6.68898 15.2669 5.73813 14.853 4.88834L14.1787 5.2168ZM14.5 7.79687L13.75 7.79687V9.35156H14.5H15.25V7.79687H14.5ZM14.5 9.35156L13.75 9.35157C13.75 10.6016 13.749 11.517 13.6551 12.2178L14.3984 12.3174L15.1418 12.417C15.2521 11.5938 15.25 10.561 15.25 9.35156L14.5 9.35156ZM14.3984 12.3174L13.6551 12.2178C13.5612 12.9184 13.3784 13.3682 13.0419 13.706L13.5732 14.2354L14.1046 14.7647C14.7648 14.1019 15.0257 13.2837 15.1418 12.417L14.3984 12.3174ZM13.5732 14.2354L13.042 13.706C12.7055 14.0436 12.257 14.227 11.5589 14.3212L11.6592 15.0645L11.7595 15.8077C12.6252 15.6909 13.4433 15.4283 14.1045 14.7647L13.5732 14.2354ZM11.6592 15.0645L11.5589 14.3212C11.2544 14.3623 10.899 14.3842 10.4758 14.3979L10.5 15.1475L10.5242 15.8971C10.9647 15.8829 11.3795 15.859 11.7594 15.8077L11.6592 15.0645ZM10.5 15.1475H11.25V11.9824H10.5H9.75V15.1475H10.5ZM10.5 11.9824L11.25 11.9824C11.25 11.696 11.2505 11.4194 11.2346 11.1853L10.4863 11.2363L9.73806 11.2873C9.74976 11.4589 9.75 11.6769 9.75 11.9824L10.5 11.9824ZM10.4863 11.2363L11.2346 11.1853C11.2174 10.9339 11.1769 10.6447 11.0534 10.3462L10.3604 10.6328L9.66729 10.9194C9.70373 11.0076 9.72642 11.1166 9.73807 11.2874L10.4863 11.2363ZM10.3604 10.6328L11.0534 10.3461C10.7912 9.71227 10.2877 9.20883 9.6539 8.94661L9.36719 9.63965L9.08048 10.3327C9.34628 10.4426 9.55735 10.6537 9.66732 10.9195L10.3604 10.6328ZM9.36719 9.63965L9.65382 8.94658C9.35532 8.82313 9.06607 8.78255 8.81471 8.76541L8.76367 9.51367L8.71264 10.2619C8.88336 10.2736 8.99243 10.2963 9.08055 10.3327L9.36719 9.63965ZM8.76367 9.51367L8.81467 8.76541C8.58058 8.74945 8.30402 8.75 8.01757 8.75L8.01758 9.5L8.01759 10.25C8.32307 10.25 8.54107 10.2502 8.71267 10.2619L8.76367 9.51367ZM8.01758 9.5V8.75H7.98437V9.5L7.98437 10.25H8.01758L8.01758 9.5ZM7.98437 9.5L7.98439 8.75C7.69802 8.75 7.42131 8.74946 7.1873 8.76541L7.23828 9.51367L7.28927 10.2619C7.46082 10.2502 7.679 10.25 7.98436 10.25L7.98437 9.5ZM7.23828 9.51367L7.18729 8.76541C6.93578 8.78255 6.64661 8.82318 6.34821 8.94655L6.63477 9.63965L6.92132 10.3327C7.00955 10.2963 7.11869 10.2736 7.28927 10.2619L7.23828 9.51367ZM6.63477 9.63965L6.34812 8.94659C5.71488 9.20849 5.21121 9.71109 4.9487 10.3448L5.6416 10.6318L6.33451 10.9189C6.4444 10.6536 6.65541 10.4427 6.92141 10.3327L6.63477 9.63965ZM5.6416 10.6318L4.94865 10.3449C4.82475 10.6442 4.78452 10.9348 4.76738 11.1851L5.51562 11.2363L6.26387 11.2876C6.27565 11.1156 6.29836 11.0062 6.33456 10.9187L5.6416 10.6318ZM5.51562 11.2363L4.76737 11.1852C4.75137 11.4192 4.75205 11.6958 4.75195 11.9812L5.50195 11.9814L6.25195 11.9817C6.25206 11.6758 6.25216 11.4588 6.26388 11.2875L5.51562 11.2363ZM5.50195 11.9814L4.75195 11.981L4.75 15.147L5.5 15.1475L6.25 15.1479L6.25195 11.9819L5.50195 11.9814ZM5.5 15.1475L5.52418 14.3979C5.10101 14.3842 4.7456 14.3623 4.44106 14.3212L4.34082 15.0645L4.24058 15.8077C4.62049 15.859 5.03534 15.8829 5.47582 15.8971L5.5 15.1475ZM4.34082 15.0645L4.4411 14.3212C3.74296 14.227 3.29446 14.0436 2.95803 13.706L2.42676 14.2354L1.89549 14.7647C2.55673 15.4283 3.3748 15.6909 4.24054 15.8077L4.34082 15.0645ZM2.42676 14.2354L2.95811 13.706C2.622 13.3686 2.43988 12.9192 2.34589 12.2178L1.60254 12.3174L0.859183 12.417C0.975211 13.2829 1.23483 14.1015 1.8954 14.7647L2.42676 14.2354ZM1.60254 12.3174L2.3459 12.2178C2.25199 11.5168 2.24999 10.6008 2.25 9.35157L1.5 9.35156L0.75 9.35156C0.749989 10.5618 0.748931 11.594 0.85918 12.417L1.60254 12.3174ZM1.5 9.35156H2.25L2.25 7.79688H1.5H0.75L0.75 9.35156H1.5ZM1.5 7.79688L2.25 7.79663C2.2496 6.57348 2.26523 6.01807 2.49555 5.54524L1.82129 5.2168L1.14703 4.88835C0.733096 5.73812 0.749638 6.68899 0.75 7.79712L1.5 7.79688ZM1.82129 5.2168L2.49549 5.54537C2.72588 5.07262 3.15321 4.71899 4.11558 3.96832L3.6543 3.37695L3.19302 2.78558C2.32101 3.46577 1.5616 4.03768 1.14709 4.88823L1.82129 5.2168ZM3.6543 3.37695L4.11592 3.96806L4.90498 3.35185L4.44336 2.76074L3.98174 2.16964L3.19268 2.78585L3.6543 3.37695ZM4.44336 2.76074L4.90484 3.35196C5.68269 2.74479 6.25247 2.30204 6.73871 2.00797L6.35059 1.36621L5.96246 0.724447C5.38258 1.07515 4.73349 1.58284 3.98188 2.16953L4.44336 2.76074ZM6.35059 1.36621L6.73866 2.008C7.22534 1.71372 7.60548 1.58302 8.00001 1.58301L8 0.833008L7.99998 0.0830078C7.22962 0.0830235 6.57685 0.352942 5.96251 0.72442L6.35059 1.36621Z" fill="#F3F4F6"/>
</svg>
