<svg width="30" height="30" viewBox="0 0 30 30" fill="none" xmlns="http://www.w3.org/2000/svg">
<path d="M28.2383 0.91909H1.76165C1.29632 0.91909 0.919088 1.29632 0.919088 1.76165V28.2384C0.919088 28.7037 1.29632 29.0809 1.76165 29.0809H28.2383C28.7037 29.0809 29.0809 28.7037 29.0809 28.2384V1.76165C29.0809 1.29632 28.7037 0.91909 28.2383 0.91909Z" fill="white"/>
<path d="M13.3113 3.65053V8.02175H8.94013C8.7851 8.02175 8.6604 7.89705 8.6604 7.74202V3.65053C8.6604 3.4955 8.7851 3.3708 8.94013 3.3708H13.0316C13.1866 3.3708 13.3113 3.4955 13.3113 3.65053Z" fill="#1F2A37"/>
<path d="M17.9726 8.3118V12.683H13.6014C13.4464 12.683 13.3217 12.5583 13.3217 12.4033V8.03207H17.6929C17.8479 8.03207 17.9726 8.15677 17.9726 8.3118Z" fill="#1F2A37"/>
<path d="M13.6014 17.3347H17.9726V21.9857H13.3217V17.6145C13.3217 17.4594 13.4464 17.3347 13.6014 17.3347Z" fill="#1F2A37"/>
<path d="M13.3217 21.9695H17.9726V26.3407C17.9726 26.4957 17.8479 26.6204 17.6929 26.6204H13.6014C13.4464 26.6204 13.3217 26.4957 13.3217 26.3407V21.9695Z" fill="#1F2A37"/>
<path d="M17.963 12.6735H22.3343C22.4893 12.6735 22.614 12.7982 22.614 12.9532V17.0447C22.614 17.1997 22.4893 17.3244 22.3343 17.3244H17.963V12.6735Z" fill="#1F2A37"/>
<path d="M13.3224 8.2781V8.26462C13.3021 8.14666 13.2078 8.0523 13.0898 8.03207H13.0763H13.3224V8.2781Z" fill="#1F2A37"/>
<path d="M13.5677 8.03277H13.5542C13.4363 8.01255 13.3419 7.91818 13.3217 7.80022V7.78674V8.03277H13.5677Z" fill="#1F2A37"/>
<path d="M17.9637 12.9195V12.906C17.9435 12.788 17.8492 12.6937 17.7312 12.6735H17.7177H17.9637V12.9195Z" fill="#1F2A37"/>
<path d="M18.2091 12.6742H18.1956C18.0776 12.6539 17.9833 12.5596 17.963 12.4416V12.4281V12.6742H18.2091Z" fill="#1F2A37"/>
<path d="M17.9637 17.0894V17.1029C17.9435 17.2208 17.8492 17.3152 17.7312 17.3354H17.7177H17.9637V17.0894Z" fill="#1F2A37"/>
<path d="M18.2091 17.3347H18.1956C18.0776 17.3549 17.9833 17.4493 17.963 17.5673V17.5808V17.3347H18.2091Z" fill="#1F2A37"/>
</svg>
