<svg width="16" height="14" viewBox="0 0 16 14" fill="none" xmlns="http://www.w3.org/2000/svg">
<path d="M10.1982 0.339876C10.3878 0.314488 10.5484 0.369539 10.6572 0.417024C10.7572 0.460672 10.8701 0.524235 10.9795 0.585969L12.4785 1.44534C12.5756 1.51404 12.7068 1.62306 12.7822 1.79984C12.8645 1.99323 12.8379 2.18905 12.8184 2.30179C12.7972 2.42372 12.7538 2.5915 12.7119 2.75198C12.4477 3.7632 13.0931 4.85094 14.1377 5.13089L14.1562 5.13577C14.3142 5.17808 14.4624 5.21807 14.5781 5.2598C14.6865 5.29889 14.8676 5.37271 14.9951 5.53812C15.1121 5.69016 15.143 5.85673 15.1553 5.97464C15.1665 6.08336 15.167 6.21335 15.167 6.33988V7.66019C15.167 7.78671 15.1665 7.9167 15.1553 8.02542C15.143 8.14333 15.1121 8.30991 14.9951 8.46195C14.8676 8.62737 14.6865 8.70118 14.5781 8.74027C14.4637 8.78151 14.1455 8.86708 14.1377 8.86917C13.0935 9.14907 12.4486 10.2367 12.7129 11.2481C12.7151 11.2565 12.7993 11.5777 12.8203 11.6983C12.8399 11.8109 12.8662 12.006 12.7842 12.1993C12.7088 12.3764 12.5767 12.4859 12.4795 12.5547L10.9805 13.4141C10.8711 13.4758 10.7581 13.5394 10.6582 13.583C10.5494 13.6305 10.3888 13.6856 10.1992 13.6602C9.99329 13.6325 9.84072 13.5149 9.75292 13.4414C9.65964 13.3634 9.4248 13.1309 9.4248 13.1309C9.03585 12.7452 8.518 12.5519 7.99999 12.5518C7.48198 12.5519 6.96414 12.7452 6.57519 13.1309C6.57519 13.1309 6.34034 13.3634 6.24706 13.4414C6.15926 13.5149 6.00669 13.6325 5.80077 13.6602C5.61116 13.6856 5.45062 13.6305 5.34179 13.583C5.24186 13.5394 5.12885 13.4758 5.01952 13.4141L3.5205 12.5547C3.42328 12.4859 3.2912 12.3764 3.21581 12.1993C3.13378 12.006 3.16013 11.8109 3.17968 11.6983C3.20064 11.5777 3.28489 11.2566 3.2871 11.2481C3.55142 10.2367 2.90649 9.14907 1.8623 8.86917C1.85433 8.86704 1.53623 8.7815 1.42187 8.74027C1.31349 8.70117 1.13236 8.62736 1.00487 8.46195C0.887873 8.30991 0.85694 8.14332 0.844718 8.02542C0.833454 7.9167 0.832971 7.78671 0.832999 7.66019V6.33988C0.832971 6.21335 0.833453 6.08336 0.844718 5.97464C0.856941 5.85674 0.887867 5.69016 1.00487 5.53812C1.13236 5.37271 1.31348 5.29889 1.42187 5.2598C1.53761 5.21807 1.68581 5.17808 1.84374 5.13577L1.8623 5.13089C2.90688 4.85094 3.55224 3.7632 3.28808 2.75198C3.24614 2.5915 3.20282 2.42372 3.18163 2.30179C3.16208 2.18905 3.13546 1.99323 3.21776 1.79984C3.29317 1.62306 3.42438 1.51404 3.52148 1.44534L5.0205 0.585969C5.12983 0.524236 5.24283 0.460672 5.34276 0.417024C5.45158 0.369539 5.61215 0.314488 5.80175 0.339876C6.00767 0.367567 6.16024 0.485225 6.24804 0.558626C6.34134 0.636633 6.57616 0.869172 6.57616 0.869172C6.96485 1.25454 7.48238 1.44715 7.99999 1.4473C8.5176 1.44715 9.03513 1.25454 9.42382 0.869172C9.42382 0.869172 9.65864 0.636636 9.75194 0.558626C9.83974 0.485226 9.99232 0.367569 10.1982 0.339876ZM7.99999 4.66702C6.71133 4.66703 5.66698 5.71137 5.66698 7.00003C5.66699 8.28869 6.71133 9.33304 7.99999 9.33304C9.28865 9.33304 10.333 8.28869 10.333 7.00003C10.333 5.71137 9.28866 4.66702 7.99999 4.66702Z" fill="#F3F4F6"/>
</svg>
