<svg width="14" height="16" viewBox="0 0 14 16" fill="none" xmlns="http://www.w3.org/2000/svg">
<path d="M6.7041 0.833008C7.92922 0.832998 8.89972 0.833452 9.65918 0.935547C10.4407 1.04062 11.0734 1.26193 11.5723 1.76074C12.0711 2.25961 12.2924 2.89231 12.3975 3.67383C12.4996 4.43327 12.5 5.40382 12.5 6.62891V8.60352C12.1107 8.22999 11.5821 8 11 8C9.80341 8.00004 8.83301 8.9704 8.83301 10.167C8.83309 10.7327 9.05015 11.248 9.40527 11.6338C8.63921 11.9364 7.98064 12.461 7.57324 13.1748C7.36194 13.5451 7.27553 13.9856 7.37305 14.4316C7.43731 14.7255 7.57 14.9695 7.72363 15.1641C7.4054 15.1667 7.06555 15.167 6.7041 15.167H5.96192C4.73696 15.167 3.76622 15.1665 3.00684 15.0645C2.22543 14.9593 1.59256 14.7381 1.09375 14.2393C0.594974 13.7404 0.373634 13.1076 0.268556 12.3262C0.166458 11.5667 0.166972 10.5962 0.166993 9.37109L0.166993 6.62891C0.166993 5.40379 0.166444 4.43328 0.268556 3.67383C0.373638 2.89237 0.595002 2.2596 1.09375 1.76074C1.59266 1.26184 2.2262 1.04063 3.00781 0.935547C3.76722 0.833496 4.73796 0.832998 5.96289 0.833008L6.7041 0.833008ZM11 12.167C12.1532 12.167 13.205 12.715 13.7031 13.5879C13.8208 13.7942 13.8625 14.0255 13.8125 14.2539C13.7643 14.4742 13.6405 14.6514 13.499 14.7812C13.2223 15.0351 12.8213 15.167 12.4258 15.167L9.57422 15.167C9.17865 15.167 8.77765 15.0351 8.50098 14.7812C8.35951 14.6514 8.23575 14.4742 8.1875 14.2539C8.13754 14.0255 8.1792 13.7942 8.29688 13.5879C8.79504 12.715 9.8468 12.167 11 12.167ZM11 8.83301C11.7364 8.83301 12.333 9.43061 12.333 10.167C12.3328 10.9032 11.7363 11.5 11 11.5C10.2637 11.5 9.66717 10.9032 9.66699 10.167C9.66699 9.43061 10.2636 8.83301 11 8.83301ZM3.66699 6.83301C3.39096 6.83301 3.16717 7.05702 3.16699 7.33301C3.16699 7.60915 3.39085 7.83301 3.66699 7.83301L8 7.83301C8.27614 7.83301 8.5 7.60915 8.5 7.33301C8.49983 7.05702 8.27604 6.83301 8 6.83301L3.66699 6.83301ZM3.66699 4.16699C3.39085 4.16699 3.16699 4.39085 3.16699 4.66699C3.16717 4.94299 3.39096 5.16699 3.66699 5.16699L9 5.16699C9.27603 5.16699 9.49983 4.94299 9.5 4.66699C9.5 4.39085 9.27614 4.16699 9 4.16699L3.66699 4.16699Z" fill="#F3F4F6"/>
</svg>
