<svg width="17" height="17" viewBox="0 0 17 17" fill="none" xmlns="http://www.w3.org/2000/svg">
<path d="M9.02609 5.21547C9.02609 6.74104 7.78938 7.97776 6.26381 7.97776C4.73824 7.97776 3.50153 6.74104 3.50153 5.21547C3.50153 3.6899 4.73824 2.45319 6.26381 2.45319C7.78938 2.45319 9.02609 3.6899 9.02609 5.21547Z" stroke="#9CA3AF" stroke-width="1.5"/>
<path d="M10.4061 7.97776C11.9317 7.97776 13.1684 6.74104 13.1684 5.21547C13.1684 3.6899 11.9317 2.45319 10.4061 2.45319" stroke="#9CA3AF" stroke-width="1.5" stroke-linecap="round" stroke-linejoin="round"/>
<path d="M7.64495 10.0505L4.88266 10.0505C2.97571 10.0505 1.42981 11.5964 1.42981 13.5034C1.42981 14.2662 2.04817 14.8845 2.81095 14.8845L9.71666 14.8845C10.4794 14.8845 11.0978 14.2662 11.0978 13.5034C11.0978 11.5964 9.55191 10.0505 7.64495 10.0505Z" stroke="#9CA3AF" stroke-width="1.5" stroke-linejoin="round"/>
<path d="M11.7884 10.0505C13.6954 10.0505 15.2412 11.5964 15.2412 13.5034C15.2412 14.2662 14.6229 14.8845 13.8601 14.8845H12.8242" stroke="#9CA3AF" stroke-width="1.5" stroke-linecap="round" stroke-linejoin="round"/>
</svg>
